<?xml version="1.0" encoding="UTF-8" standalone="no"?>
<!DOCTYPE svg PUBLIC "-//W3C//DTD SVG 1.1//EN" "http://www.w3.org/Graphics/SVG/1.1/DTD/svg11.dtd">
<svg width="100%" height="100%" viewBox="0 0 1100 1100" version="1.1" xmlns="http://www.w3.org/2000/svg" xmlns:xlink="http://www.w3.org/1999/xlink" xml:space="preserve" xmlns:serif="http://www.serif.com/" style="fill-rule:evenodd;clip-rule:evenodd;stroke-linejoin:round;stroke-miterlimit:2;">
    <g transform="matrix(1,0,0,1,-990.173,-357.594)">
        <g transform="matrix(0.81476,0,0,0.81476,180.638,38.2895)">
            <circle cx="1116.32" cy="514.637" r="122.736"/>
        </g>
        <g transform="matrix(0.81476,0,0,0.81476,180.638,488.289)">
            <circle cx="1116.32" cy="514.637" r="122.736"/>
        </g>
        <g transform="matrix(0.81476,0,0,0.81476,180.638,938.289)">
            <circle cx="1116.32" cy="514.637" r="122.736"/>
        </g>
        <g transform="matrix(0.81476,0,0,0.81476,630.638,38.2895)">
            <circle cx="1116.32" cy="514.637" r="122.736"/>
        </g>
        <g transform="matrix(0.81476,0,0,0.81476,630.638,488.289)">
            <circle cx="1116.32" cy="514.637" r="122.736"/>
        </g>
        <g transform="matrix(0.81476,0,0,0.81476,630.638,938.289)">
            <circle cx="1116.32" cy="514.637" r="122.736"/>
        </g>
        <g transform="matrix(0.81476,0,0,0.81476,1080.64,38.2895)">
            <circle cx="1116.32" cy="514.637" r="122.736"/>
        </g>
        <g transform="matrix(0.81476,0,0,0.81476,1080.64,488.289)">
            <circle cx="1116.32" cy="514.637" r="122.736"/>
        </g>
        <g transform="matrix(0.81476,0,0,0.81476,1080.64,938.289)">
            <circle cx="1116.32" cy="514.637" r="122.736"/>
        </g>
    </g>
</svg>
